<mxfile host="app.diagrams.net" modified="2024-04-26T06:12:36.570Z" agent="Mozilla/5.0 (Macintosh; Intel Mac OS X 10_15_7) AppleWebKit/537.36 (KHTML, like Gecko) Chrome/124.0.0.0 Safari/537.36" etag="ALTvfxNH7RQvupFwekBX" version="24.3.0" type="github">
  <diagram name="Page-1" id="2YBvvXClWsGukQMizWep">
    <mxGraphModel dx="1636" dy="888" grid="1" gridSize="10" guides="1" tooltips="1" connect="1" arrows="1" fold="1" page="1" pageScale="1" pageWidth="850" pageHeight="1100" math="0" shadow="0">
      <root>
        <mxCell id="0" />
        <mxCell id="1" parent="0" />
        <mxCell id="aM9ryv3xv72pqoxQDRHE-5" value="tradingview" style="shape=umlLifeline;perimeter=lifelinePerimeter;whiteSpace=wrap;html=1;container=0;dropTarget=0;collapsible=0;recursiveResize=0;outlineConnect=0;portConstraint=eastwest;newEdgeStyle={&quot;edgeStyle&quot;:&quot;elbowEdgeStyle&quot;,&quot;elbow&quot;:&quot;vertical&quot;,&quot;curved&quot;:0,&quot;rounded&quot;:0};" parent="1" vertex="1">
          <mxGeometry x="220" y="40" width="100" height="730" as="geometry" />
        </mxCell>
        <mxCell id="aM9ryv3xv72pqoxQDRHE-6" value="" style="html=1;points=[];perimeter=orthogonalPerimeter;outlineConnect=0;targetShapes=umlLifeline;portConstraint=eastwest;newEdgeStyle={&quot;edgeStyle&quot;:&quot;elbowEdgeStyle&quot;,&quot;elbow&quot;:&quot;vertical&quot;,&quot;curved&quot;:0,&quot;rounded&quot;:0};" parent="aM9ryv3xv72pqoxQDRHE-5" vertex="1">
          <mxGeometry x="45" y="110" width="10" height="480" as="geometry" />
        </mxCell>
        <mxCell id="cITfuxM9Gzq6SWkB0c8T-9" value="" style="html=1;points=[];perimeter=orthogonalPerimeter;outlineConnect=0;targetShapes=umlLifeline;portConstraint=eastwest;newEdgeStyle={&quot;edgeStyle&quot;:&quot;elbowEdgeStyle&quot;,&quot;elbow&quot;:&quot;vertical&quot;,&quot;curved&quot;:0,&quot;rounded&quot;:0};" vertex="1" parent="aM9ryv3xv72pqoxQDRHE-5">
          <mxGeometry x="35" y="160" width="10" height="80" as="geometry" />
        </mxCell>
        <mxCell id="cITfuxM9Gzq6SWkB0c8T-20" value="" style="html=1;points=[];perimeter=orthogonalPerimeter;outlineConnect=0;targetShapes=umlLifeline;portConstraint=eastwest;newEdgeStyle={&quot;edgeStyle&quot;:&quot;elbowEdgeStyle&quot;,&quot;elbow&quot;:&quot;vertical&quot;,&quot;curved&quot;:0,&quot;rounded&quot;:0};" vertex="1" parent="aM9ryv3xv72pqoxQDRHE-5">
          <mxGeometry x="35" y="450" width="10" height="80" as="geometry" />
        </mxCell>
        <mxCell id="cITfuxM9Gzq6SWkB0c8T-21" value="E: subscribeBars" style="html=1;verticalAlign=bottom;endArrow=block;edgeStyle=elbowEdgeStyle;elbow=vertical;curved=0;rounded=0;" edge="1" parent="aM9ryv3xv72pqoxQDRHE-5" source="cITfuxM9Gzq6SWkB0c8T-20" target="cITfuxM9Gzq6SWkB0c8T-22">
          <mxGeometry relative="1" as="geometry">
            <mxPoint x="-45" y="410" as="sourcePoint" />
            <Array as="points">
              <mxPoint x="-30" y="460" />
            </Array>
            <mxPoint x="-120" y="495" as="targetPoint" />
          </mxGeometry>
        </mxCell>
        <mxCell id="cITfuxM9Gzq6SWkB0c8T-22" value="" style="html=1;points=[];perimeter=orthogonalPerimeter;outlineConnect=0;targetShapes=umlLifeline;portConstraint=eastwest;newEdgeStyle={&quot;edgeStyle&quot;:&quot;elbowEdgeStyle&quot;,&quot;elbow&quot;:&quot;vertical&quot;,&quot;curved&quot;:0,&quot;rounded&quot;:0};" vertex="1" parent="aM9ryv3xv72pqoxQDRHE-5">
          <mxGeometry x="-125" y="450" width="10" height="80" as="geometry" />
        </mxCell>
        <mxCell id="cITfuxM9Gzq6SWkB0c8T-23" value="E: subscribeBars" style="html=1;verticalAlign=bottom;endArrow=block;edgeStyle=elbowEdgeStyle;elbow=vertical;curved=0;rounded=0;" edge="1" parent="aM9ryv3xv72pqoxQDRHE-5" source="cITfuxM9Gzq6SWkB0c8T-22">
          <mxGeometry x="-0.0007" relative="1" as="geometry">
            <mxPoint x="45" y="470" as="sourcePoint" />
            <Array as="points">
              <mxPoint x="-20" y="470" />
            </Array>
            <mxPoint x="239" y="470" as="targetPoint" />
            <mxPoint as="offset" />
          </mxGeometry>
        </mxCell>
        <mxCell id="cITfuxM9Gzq6SWkB0c8T-24" value="F: subscribeBars()" style="html=1;verticalAlign=bottom;endArrow=block;edgeStyle=elbowEdgeStyle;elbow=vertical;curved=0;rounded=0;" edge="1" parent="aM9ryv3xv72pqoxQDRHE-5">
          <mxGeometry relative="1" as="geometry">
            <mxPoint x="235" y="500" as="sourcePoint" />
            <Array as="points">
              <mxPoint x="-10" y="500" />
            </Array>
            <mxPoint x="-115" y="500" as="targetPoint" />
          </mxGeometry>
        </mxCell>
        <mxCell id="cITfuxM9Gzq6SWkB0c8T-25" value="F: subscribeBars()" style="html=1;verticalAlign=bottom;endArrow=block;edgeStyle=elbowEdgeStyle;elbow=vertical;curved=0;rounded=0;" edge="1" parent="aM9ryv3xv72pqoxQDRHE-5" source="cITfuxM9Gzq6SWkB0c8T-22" target="cITfuxM9Gzq6SWkB0c8T-20">
          <mxGeometry relative="1" as="geometry">
            <mxPoint x="40" y="560" as="sourcePoint" />
            <Array as="points">
              <mxPoint x="-40" y="520" />
            </Array>
            <mxPoint x="-110" y="560" as="targetPoint" />
            <mxPoint as="offset" />
          </mxGeometry>
        </mxCell>
        <mxCell id="cITfuxM9Gzq6SWkB0c8T-59" value="订阅 kline，并实时返回" style="whiteSpace=wrap;html=1;" vertex="1" parent="aM9ryv3xv72pqoxQDRHE-5">
          <mxGeometry x="260" y="460" width="110" height="60" as="geometry" />
        </mxCell>
        <mxCell id="cITfuxM9Gzq6SWkB0c8T-61" value="Loop" style="shape=umlFrame;whiteSpace=wrap;html=1;pointerEvents=0;" vertex="1" parent="aM9ryv3xv72pqoxQDRHE-5">
          <mxGeometry x="-195" y="440" width="595" height="120" as="geometry" />
        </mxCell>
        <mxCell id="cITfuxM9Gzq6SWkB0c8T-33" value="" style="html=1;points=[];perimeter=orthogonalPerimeter;outlineConnect=0;targetShapes=umlLifeline;portConstraint=eastwest;newEdgeStyle={&quot;edgeStyle&quot;:&quot;elbowEdgeStyle&quot;,&quot;elbow&quot;:&quot;vertical&quot;,&quot;curved&quot;:0,&quot;rounded&quot;:0};" vertex="1" parent="aM9ryv3xv72pqoxQDRHE-5">
          <mxGeometry x="35" y="630" width="10" height="80" as="geometry" />
        </mxCell>
        <mxCell id="aM9ryv3xv72pqoxQDRHE-7" value="F: init(symbol,locale,theme,interval)" style="html=1;verticalAlign=bottom;endArrow=block;edgeStyle=elbowEdgeStyle;elbow=vertical;curved=0;rounded=0;" parent="1" edge="1">
          <mxGeometry x="-0.137" relative="1" as="geometry">
            <mxPoint x="459.4999999999998" y="140" as="sourcePoint" />
            <Array as="points">
              <mxPoint x="180" y="140" />
            </Array>
            <mxPoint x="89.875" y="140" as="targetPoint" />
            <mxPoint as="offset" />
          </mxGeometry>
        </mxCell>
        <mxCell id="aM9ryv3xv72pqoxQDRHE-9" value="E: resolveSymbol" style="html=1;verticalAlign=bottom;endArrow=block;edgeStyle=elbowEdgeStyle;elbow=vertical;curved=0;rounded=0;" parent="1" source="cITfuxM9Gzq6SWkB0c8T-9" target="cITfuxM9Gzq6SWkB0c8T-7" edge="1">
          <mxGeometry relative="1" as="geometry">
            <mxPoint x="175" y="160" as="sourcePoint" />
            <Array as="points">
              <mxPoint x="190" y="210" />
            </Array>
            <mxPoint x="100" y="245" as="targetPoint" />
          </mxGeometry>
        </mxCell>
        <mxCell id="cITfuxM9Gzq6SWkB0c8T-1" value="app" style="shape=umlLifeline;perimeter=lifelinePerimeter;whiteSpace=wrap;html=1;container=0;dropTarget=0;collapsible=0;recursiveResize=0;outlineConnect=0;portConstraint=eastwest;newEdgeStyle={&quot;edgeStyle&quot;:&quot;elbowEdgeStyle&quot;,&quot;elbow&quot;:&quot;vertical&quot;,&quot;curved&quot;:0,&quot;rounded&quot;:0};" vertex="1" parent="1">
          <mxGeometry x="410" y="40" width="100" height="730" as="geometry" />
        </mxCell>
        <mxCell id="cITfuxM9Gzq6SWkB0c8T-2" value="" style="html=1;points=[];perimeter=orthogonalPerimeter;outlineConnect=0;targetShapes=umlLifeline;portConstraint=eastwest;newEdgeStyle={&quot;edgeStyle&quot;:&quot;elbowEdgeStyle&quot;,&quot;elbow&quot;:&quot;vertical&quot;,&quot;curved&quot;:0,&quot;rounded&quot;:0};" vertex="1" parent="cITfuxM9Gzq6SWkB0c8T-1">
          <mxGeometry x="45" y="150" width="10" height="440" as="geometry" />
        </mxCell>
        <mxCell id="cITfuxM9Gzq6SWkB0c8T-4" value="初始化&lt;br&gt;OHLC 图" style="text;html=1;align=center;verticalAlign=middle;resizable=0;points=[];autosize=1;strokeColor=none;fillColor=none;" vertex="1" parent="1">
          <mxGeometry x="-45" y="35" width="70" height="40" as="geometry" />
        </mxCell>
        <mxCell id="aM9ryv3xv72pqoxQDRHE-3" value="E:ready" style="html=1;verticalAlign=bottom;startArrow=oval;endArrow=block;startSize=8;edgeStyle=elbowEdgeStyle;elbow=vertical;curved=0;rounded=0;" parent="1" edge="1" source="cITfuxM9Gzq6SWkB0c8T-5">
          <mxGeometry x="0.137" y="5" relative="1" as="geometry">
            <mxPoint x="89.875" y="110.13499999999999" as="sourcePoint" />
            <mxPoint x="459.4999999999998" y="110.13499999999999" as="targetPoint" />
            <mxPoint as="offset" />
          </mxGeometry>
        </mxCell>
        <mxCell id="cITfuxM9Gzq6SWkB0c8T-5" value="web" style="shape=umlLifeline;perimeter=lifelinePerimeter;whiteSpace=wrap;html=1;container=0;dropTarget=0;collapsible=0;recursiveResize=0;outlineConnect=0;portConstraint=eastwest;newEdgeStyle={&quot;edgeStyle&quot;:&quot;elbowEdgeStyle&quot;,&quot;elbow&quot;:&quot;vertical&quot;,&quot;curved&quot;:0,&quot;rounded&quot;:0};" vertex="1" parent="1">
          <mxGeometry x="40" y="40" width="120" height="730" as="geometry" />
        </mxCell>
        <mxCell id="cITfuxM9Gzq6SWkB0c8T-7" value="" style="html=1;points=[];perimeter=orthogonalPerimeter;outlineConnect=0;targetShapes=umlLifeline;portConstraint=eastwest;newEdgeStyle={&quot;edgeStyle&quot;:&quot;elbowEdgeStyle&quot;,&quot;elbow&quot;:&quot;vertical&quot;,&quot;curved&quot;:0,&quot;rounded&quot;:0};" vertex="1" parent="cITfuxM9Gzq6SWkB0c8T-5">
          <mxGeometry x="55" y="150" width="10" height="90" as="geometry" />
        </mxCell>
        <mxCell id="cITfuxM9Gzq6SWkB0c8T-6" value="" style="html=1;points=[];perimeter=orthogonalPerimeter;outlineConnect=0;targetShapes=umlLifeline;portConstraint=eastwest;newEdgeStyle={&quot;edgeStyle&quot;:&quot;elbowEdgeStyle&quot;,&quot;elbow&quot;:&quot;vertical&quot;,&quot;curved&quot;:0,&quot;rounded&quot;:0};" vertex="1" parent="cITfuxM9Gzq6SWkB0c8T-5">
          <mxGeometry x="45" y="140" width="10" height="450" as="geometry" />
        </mxCell>
        <mxCell id="cITfuxM9Gzq6SWkB0c8T-14" value="" style="html=1;points=[];perimeter=orthogonalPerimeter;outlineConnect=0;targetShapes=umlLifeline;portConstraint=eastwest;newEdgeStyle={&quot;edgeStyle&quot;:&quot;elbowEdgeStyle&quot;,&quot;elbow&quot;:&quot;vertical&quot;,&quot;curved&quot;:0,&quot;rounded&quot;:0};" vertex="1" parent="cITfuxM9Gzq6SWkB0c8T-5">
          <mxGeometry x="215" y="300" width="10" height="80" as="geometry" />
        </mxCell>
        <mxCell id="cITfuxM9Gzq6SWkB0c8T-15" value="E: getBars" style="html=1;verticalAlign=bottom;endArrow=block;edgeStyle=elbowEdgeStyle;elbow=vertical;curved=0;rounded=0;" edge="1" parent="cITfuxM9Gzq6SWkB0c8T-5" source="cITfuxM9Gzq6SWkB0c8T-14" target="cITfuxM9Gzq6SWkB0c8T-16">
          <mxGeometry relative="1" as="geometry">
            <mxPoint x="135" y="260" as="sourcePoint" />
            <Array as="points">
              <mxPoint x="150" y="310" />
            </Array>
            <mxPoint x="60" y="345" as="targetPoint" />
          </mxGeometry>
        </mxCell>
        <mxCell id="cITfuxM9Gzq6SWkB0c8T-16" value="" style="html=1;points=[];perimeter=orthogonalPerimeter;outlineConnect=0;targetShapes=umlLifeline;portConstraint=eastwest;newEdgeStyle={&quot;edgeStyle&quot;:&quot;elbowEdgeStyle&quot;,&quot;elbow&quot;:&quot;vertical&quot;,&quot;curved&quot;:0,&quot;rounded&quot;:0};" vertex="1" parent="cITfuxM9Gzq6SWkB0c8T-5">
          <mxGeometry x="55" y="300" width="10" height="80" as="geometry" />
        </mxCell>
        <mxCell id="cITfuxM9Gzq6SWkB0c8T-17" value="E: getBars" style="html=1;verticalAlign=bottom;endArrow=block;edgeStyle=elbowEdgeStyle;elbow=vertical;curved=0;rounded=0;" edge="1" parent="cITfuxM9Gzq6SWkB0c8T-5" source="cITfuxM9Gzq6SWkB0c8T-16">
          <mxGeometry relative="1" as="geometry">
            <mxPoint x="225" y="320" as="sourcePoint" />
            <Array as="points">
              <mxPoint x="160" y="320" />
            </Array>
            <mxPoint x="419" y="320" as="targetPoint" />
          </mxGeometry>
        </mxCell>
        <mxCell id="cITfuxM9Gzq6SWkB0c8T-18" value="F: getBars()" style="html=1;verticalAlign=bottom;endArrow=block;edgeStyle=elbowEdgeStyle;elbow=vertical;curved=0;rounded=0;" edge="1" parent="cITfuxM9Gzq6SWkB0c8T-5">
          <mxGeometry relative="1" as="geometry">
            <mxPoint x="415" y="350" as="sourcePoint" />
            <Array as="points">
              <mxPoint x="170" y="350" />
            </Array>
            <mxPoint x="65" y="350" as="targetPoint" />
          </mxGeometry>
        </mxCell>
        <mxCell id="cITfuxM9Gzq6SWkB0c8T-19" value="F: getBars()" style="html=1;verticalAlign=bottom;endArrow=block;edgeStyle=elbowEdgeStyle;elbow=vertical;curved=0;rounded=0;" edge="1" parent="cITfuxM9Gzq6SWkB0c8T-5" source="cITfuxM9Gzq6SWkB0c8T-16" target="cITfuxM9Gzq6SWkB0c8T-14">
          <mxGeometry relative="1" as="geometry">
            <mxPoint x="220" y="410" as="sourcePoint" />
            <Array as="points">
              <mxPoint x="140" y="370" />
            </Array>
            <mxPoint x="70" y="410" as="targetPoint" />
            <mxPoint as="offset" />
          </mxGeometry>
        </mxCell>
        <mxCell id="cITfuxM9Gzq6SWkB0c8T-58" value="rest 接口获取某个时间段内的kline 数据" style="whiteSpace=wrap;html=1;" vertex="1" parent="cITfuxM9Gzq6SWkB0c8T-5">
          <mxGeometry x="440" y="310" width="110" height="60" as="geometry" />
        </mxCell>
        <mxCell id="cITfuxM9Gzq6SWkB0c8T-60" value="Loop" style="shape=umlFrame;whiteSpace=wrap;html=1;pointerEvents=0;" vertex="1" parent="cITfuxM9Gzq6SWkB0c8T-5">
          <mxGeometry x="-15" y="270" width="595" height="120" as="geometry" />
        </mxCell>
        <mxCell id="cITfuxM9Gzq6SWkB0c8T-10" value="E: resolveSymbol" style="html=1;verticalAlign=bottom;endArrow=block;edgeStyle=elbowEdgeStyle;elbow=vertical;curved=0;rounded=0;" edge="1" parent="1" source="cITfuxM9Gzq6SWkB0c8T-7" target="cITfuxM9Gzq6SWkB0c8T-1">
          <mxGeometry relative="1" as="geometry">
            <mxPoint x="265" y="220" as="sourcePoint" />
            <Array as="points">
              <mxPoint x="200" y="220" />
            </Array>
            <mxPoint x="115" y="220" as="targetPoint" />
          </mxGeometry>
        </mxCell>
        <mxCell id="cITfuxM9Gzq6SWkB0c8T-12" value="F: resolveSymbol()" style="html=1;verticalAlign=bottom;endArrow=block;edgeStyle=elbowEdgeStyle;elbow=vertical;curved=0;rounded=0;" edge="1" parent="1">
          <mxGeometry relative="1" as="geometry">
            <mxPoint x="455" y="250" as="sourcePoint" />
            <Array as="points">
              <mxPoint x="210" y="250" />
            </Array>
            <mxPoint x="105" y="250" as="targetPoint" />
          </mxGeometry>
        </mxCell>
        <mxCell id="cITfuxM9Gzq6SWkB0c8T-26" value="F: new Tradingview()" style="html=1;verticalAlign=bottom;endArrow=block;edgeStyle=elbowEdgeStyle;elbow=vertical;curved=0;rounded=0;" edge="1" parent="1" source="cITfuxM9Gzq6SWkB0c8T-5" target="aM9ryv3xv72pqoxQDRHE-6">
          <mxGeometry x="-0.0007" relative="1" as="geometry">
            <mxPoint x="100" y="160" as="sourcePoint" />
            <Array as="points">
              <mxPoint x="175" y="160" />
            </Array>
            <mxPoint x="250" y="160" as="targetPoint" />
            <mxPoint as="offset" />
          </mxGeometry>
        </mxCell>
        <mxCell id="cITfuxM9Gzq6SWkB0c8T-56" value="初始化" style="whiteSpace=wrap;html=1;" vertex="1" parent="1">
          <mxGeometry x="480" y="110" width="80" height="30" as="geometry" />
        </mxCell>
        <mxCell id="cITfuxM9Gzq6SWkB0c8T-57" value="传入当前symbol 信息" style="whiteSpace=wrap;html=1;" vertex="1" parent="1">
          <mxGeometry x="480" y="220" width="80" height="30" as="geometry" />
        </mxCell>
        <mxCell id="cITfuxM9Gzq6SWkB0c8T-34" value="E: unsubscribeBars" style="html=1;verticalAlign=bottom;endArrow=block;edgeStyle=elbowEdgeStyle;elbow=vertical;curved=0;rounded=0;" edge="1" parent="1" source="cITfuxM9Gzq6SWkB0c8T-33" target="cITfuxM9Gzq6SWkB0c8T-35">
          <mxGeometry relative="1" as="geometry">
            <mxPoint x="175" y="630" as="sourcePoint" />
            <Array as="points">
              <mxPoint x="190" y="680" />
            </Array>
            <mxPoint x="100" y="715" as="targetPoint" />
          </mxGeometry>
        </mxCell>
        <mxCell id="cITfuxM9Gzq6SWkB0c8T-35" value="" style="html=1;points=[];perimeter=orthogonalPerimeter;outlineConnect=0;targetShapes=umlLifeline;portConstraint=eastwest;newEdgeStyle={&quot;edgeStyle&quot;:&quot;elbowEdgeStyle&quot;,&quot;elbow&quot;:&quot;vertical&quot;,&quot;curved&quot;:0,&quot;rounded&quot;:0};" vertex="1" parent="1">
          <mxGeometry x="95" y="670" width="10" height="80" as="geometry" />
        </mxCell>
        <mxCell id="cITfuxM9Gzq6SWkB0c8T-36" value="E: unsubscribeBars" style="html=1;verticalAlign=bottom;endArrow=block;edgeStyle=elbowEdgeStyle;elbow=vertical;curved=0;rounded=0;" edge="1" parent="1" source="cITfuxM9Gzq6SWkB0c8T-35">
          <mxGeometry x="-0.0007" relative="1" as="geometry">
            <mxPoint x="265" y="690" as="sourcePoint" />
            <Array as="points">
              <mxPoint x="200" y="690" />
            </Array>
            <mxPoint x="459" y="690" as="targetPoint" />
            <mxPoint as="offset" />
          </mxGeometry>
        </mxCell>
        <mxCell id="cITfuxM9Gzq6SWkB0c8T-37" value="F: unsubscribeBars()" style="html=1;verticalAlign=bottom;endArrow=block;edgeStyle=elbowEdgeStyle;elbow=vertical;curved=0;rounded=0;" edge="1" parent="1">
          <mxGeometry relative="1" as="geometry">
            <mxPoint x="455" y="720" as="sourcePoint" />
            <Array as="points">
              <mxPoint x="210" y="720" />
            </Array>
            <mxPoint x="105" y="720" as="targetPoint" />
          </mxGeometry>
        </mxCell>
        <mxCell id="cITfuxM9Gzq6SWkB0c8T-38" value="F: unsubscribeBars()" style="html=1;verticalAlign=bottom;endArrow=block;edgeStyle=elbowEdgeStyle;elbow=vertical;curved=0;rounded=0;" edge="1" parent="1" source="cITfuxM9Gzq6SWkB0c8T-35" target="cITfuxM9Gzq6SWkB0c8T-33">
          <mxGeometry relative="1" as="geometry">
            <mxPoint x="260" y="780" as="sourcePoint" />
            <Array as="points">
              <mxPoint x="180" y="740" />
            </Array>
            <mxPoint x="110" y="780" as="targetPoint" />
            <mxPoint as="offset" />
          </mxGeometry>
        </mxCell>
        <mxCell id="cITfuxM9Gzq6SWkB0c8T-13" value="F: resolveSymbol()" style="html=1;verticalAlign=bottom;endArrow=block;edgeStyle=elbowEdgeStyle;elbow=vertical;curved=0;rounded=0;" edge="1" parent="1" source="cITfuxM9Gzq6SWkB0c8T-7" target="cITfuxM9Gzq6SWkB0c8T-9">
          <mxGeometry relative="1" as="geometry">
            <mxPoint x="105" y="300" as="sourcePoint" />
            <Array as="points">
              <mxPoint x="180" y="270" />
            </Array>
            <mxPoint x="255" y="300" as="targetPoint" />
            <mxPoint as="offset" />
          </mxGeometry>
        </mxCell>
      </root>
    </mxGraphModel>
  </diagram>
</mxfile>
